<svg width="283" height="274" viewBox="0 0 283 274" fill="none" xmlns="http://www.w3.org/2000/svg">
<circle cx="159.03" cy="21.912" r="2.54404" fill="#278C7A" fill-opacity="0.9"/>
<g filter="url(#filter0_b_731_170)">
<ellipse cx="146.875" cy="34.0667" rx="7.06678" ry="7.34945" fill="url(#paint0_linear_731_170)" fill-opacity="0.4"/>
</g>
<g filter="url(#filter1_b_731_170)">
<path fill-rule="evenodd" clip-rule="evenodd" d="M124.262 22.4531C124.262 16.378 129.187 11.4531 135.262 11.4531H158.489C164.564 11.4531 169.489 16.378 169.489 22.4531V45.6805C169.489 51.7557 164.564 56.6805 158.489 56.6805H135.262C129.187 56.6805 124.262 51.7557 124.262 45.6805V22.4531ZM161.574 21.9118C161.574 23.3169 160.435 24.4559 159.03 24.4559C157.625 24.4559 156.486 23.3169 156.486 21.9118C156.486 20.5068 157.625 19.3678 159.03 19.3678C160.435 19.3678 161.574 20.5068 161.574 21.9118ZM146.875 44.8083C152.808 44.8083 157.617 39.9991 157.617 34.0668C157.617 28.1344 152.808 23.3252 146.875 23.3252C140.943 23.3252 136.134 28.1344 136.134 34.0668C136.134 39.9991 140.943 44.8083 146.875 44.8083Z" fill="url(#paint1_linear_731_170)" fill-opacity="0.4"/>
</g>
<ellipse cx="163.393" cy="17.4961" rx="17.0428" ry="17.0427" fill="url(#paint2_linear_731_170)"/>
<path fill-rule="evenodd" clip-rule="evenodd" d="M147.454 11.4529H157.316C164.04 11.4529 169.49 16.9031 169.49 23.6263V33.4163C167.597 34.1414 165.542 34.5386 163.394 34.5386C161.362 34.5386 159.412 34.1828 157.604 33.5299C157.333 28.0133 152.9 23.591 147.379 23.3366C146.714 21.5148 146.352 19.5477 146.352 17.4959C146.352 15.368 146.742 13.3311 147.454 11.4529ZM153.436 31.328C151.858 30.1904 150.484 28.7896 149.375 27.1901C151.223 27.9168 152.701 29.4255 153.436 31.328Z" fill="url(#paint3_linear_731_170)"/>
<circle cx="158.533" cy="22.4103" r="2.84046" fill="#278C7A" fill-opacity="0.9"/>
<g filter="url(#filter2_b_731_170)">
<path fill-rule="evenodd" clip-rule="evenodd" d="M11.1602 86.9148C5.08502 86.9148 0.160156 91.8397 0.160156 97.9148V121.184C0.160156 127.259 5.08502 132.184 11.1602 132.184H45.7468C51.8219 132.184 56.7468 127.259 56.7468 121.184V97.9148C56.7468 91.8397 51.8219 86.9148 45.7468 86.9148H11.1602ZM36.328 110.557C37.0022 110.174 37.0022 109.202 36.328 108.819L22.3748 100.883C21.7082 100.504 20.8804 100.986 20.8804 101.753V117.624C20.8804 118.391 21.7082 118.872 22.3748 118.493L36.328 110.557Z" fill="url(#paint4_linear_731_170)" fill-opacity="0.4"/>
</g>
<ellipse cx="50.7582" cy="92.933" rx="16.976" ry="16.9759" fill="url(#paint5_linear_731_170)"/>
<path fill-rule="evenodd" clip-rule="evenodd" d="M56.7474 108.823C54.8852 109.525 52.8671 109.909 50.7592 109.909C41.3836 109.909 33.7832 102.309 33.7832 92.933C33.7832 90.8138 34.1715 88.7853 34.8809 86.9148H45.4301C51.6805 86.9148 56.7474 91.9817 56.7474 98.2321V108.823Z" fill="url(#paint6_linear_731_170)"/>
<g filter="url(#filter3_b_731_170)">
<path fill-rule="evenodd" clip-rule="evenodd" d="M39.1734 226.49L26.8579 223.155C26.3695 222.982 25.4051 222.417 25.455 221.543C25.5049 220.668 26.12 220.285 26.4213 220.203L76.9626 203.775C77.4614 203.629 78.5901 203.469 79.1139 203.994C79.7687 204.65 79.6751 205.224 79.6128 205.442C79.5629 205.617 73.9798 229.169 71.1944 240.923C71.1217 241.36 70.6769 242.328 69.4796 242.7C68.2823 243.072 67.0476 242.508 66.5799 242.18L54.3889 234.472L47.5607 239.994C47.3217 240.258 46.6066 240.754 45.6588 240.622C44.7109 240.491 44.3493 239.857 44.2869 239.556L39.1734 226.49ZM45.9003 236.145L46.9038 229.4L69.7302 211.385C70.2073 210.984 69.8592 210.606 69.7819 210.548C69.5194 210.353 69.2172 210.301 68.7122 210.646L42.2211 225.295L45.9003 236.145Z" fill="url(#paint7_linear_731_170)" fill-opacity="0.4"/>
</g>
<ellipse cx="72.8191" cy="209.187" rx="16.7957" ry="16.7956" fill="url(#paint8_linear_731_170)"/>
<path fill-rule="evenodd" clip-rule="evenodd" d="M56.0791 210.563L76.9631 203.775C77.462 203.629 78.5907 203.469 79.1145 203.994C79.7692 204.65 79.6757 205.224 79.6133 205.443C79.5808 205.557 77.1925 215.623 74.7628 225.871C74.1251 225.945 73.4765 225.983 72.8192 225.983C67.4056 225.983 62.5903 223.421 59.5188 219.445L69.7307 211.385C70.2079 210.984 69.8597 210.606 69.7824 210.548C69.52 210.353 69.2177 210.301 68.7127 210.646L57.7873 216.688C56.8526 214.818 56.2565 212.75 56.0791 210.563Z" fill="url(#paint9_linear_731_170)"/>
<g filter="url(#filter4_b_731_170)">
<g filter="url(#filter5_b_731_170)">
<path fill-rule="evenodd" clip-rule="evenodd" d="M232.203 123.44H256.32C259.856 123.44 260.792 126.054 260.818 127.361V158.184C260.792 159.422 259.996 161.899 257.018 161.899H231.583C230.29 161.555 227.659 160.33 227.473 158.184V127.361C227.576 126.054 228.667 123.44 232.203 123.44ZM255.699 128.049H245.321V139.676H255.699V128.049ZM232.521 128.049H243.099V130.247H232.521V128.049ZM243.099 132.764H232.521V134.962H243.099V132.764ZM232.521 137.478H243.099V139.676H232.521V137.478ZM255.7 141.57H232.521V143.768H255.7V141.57ZM232.521 146.098H255.7V148.296H232.521V146.098ZM255.7 150.626H232.521V152.824H255.7V150.626Z" fill="url(#paint10_linear_731_170)" fill-opacity="0.4"/>
<path d="M262.915 116.653H235.228V121.157H263.53V152.954H268.375C268.35 143.31 268.314 123.286 268.375 120.338C268.437 117.39 264.76 116.653 262.915 116.653Z" fill="url(#paint11_linear_731_170)" fill-opacity="0.4"/>
</g>
<ellipse cx="265.176" cy="115.396" rx="16.9838" ry="16.9837" fill="url(#paint12_linear_731_170)"/>
<path fill-rule="evenodd" clip-rule="evenodd" d="M248.237 116.654H262.914C264.76 116.654 268.436 117.391 268.375 120.338C268.347 121.657 268.339 126.391 268.341 132.085C267.315 132.278 266.257 132.379 265.175 132.379C264.62 132.379 264.071 132.353 263.529 132.301V121.157H249.194C248.681 119.734 248.352 118.224 248.237 116.654ZM250.214 123.44H256.319C259.855 123.44 260.791 126.055 260.817 127.362V131.815C258.968 131.326 257.243 130.532 255.699 129.492V128.05H253.847C252.385 126.74 251.152 125.182 250.214 123.44Z" fill="url(#paint13_linear_731_170)"/>
</g>
<g filter="url(#filter6_b_731_170)">
<path fill-rule="evenodd" clip-rule="evenodd" d="M163.617 233.325C163.617 227.25 168.542 222.325 174.617 222.325H203.845C209.92 222.325 214.845 227.25 214.845 233.325V262.553C214.845 268.628 209.92 273.553 203.845 273.553H174.617C168.542 273.553 163.617 268.628 163.617 262.553V233.325ZM179.548 244.191C179.048 247.939 181.63 251.792 182.984 253.249L182.672 255.748C181.735 255.748 176.737 250.75 177.362 244.191C177.986 237.631 183.921 233.57 188.607 233.57C193.292 233.57 200.477 236.069 201.101 244.191C201.601 250.688 197.561 254.603 195.479 255.748L195.166 253.249C196.52 252.208 199.102 248.939 198.602 244.191C197.978 238.256 191.73 235.757 188.607 235.757C185.483 235.757 180.173 239.505 179.548 244.191ZM180.692 258.944C177.529 256.85 172.588 253.578 173.446 244.076C174.117 236.648 180.797 230.772 187.929 230.772C194.883 230.772 203.45 234.693 204.225 244.076C205.045 254.018 199.149 257.829 196.214 259.726C195.795 259.997 195.436 260.229 195.166 260.434L194.854 263.245C200.164 261.058 207.835 254.325 207.036 244.076C206.037 231.265 195.42 227.635 187.929 227.635C180.438 227.635 171.8 233.729 170.801 244.076C169.803 254.424 177.673 261.683 183.296 263.245L182.671 260.434C182.223 259.957 181.518 259.491 180.692 258.944ZM191.418 266.369C191.168 267.118 189.648 267.514 188.919 267.618C188.19 267.618 186.607 267.368 186.108 266.369C185.483 265.119 184.546 258.872 184.233 254.499C183.921 250.126 187.67 250.126 188.919 250.126C190.168 250.126 193.292 250.75 193.292 254.499C193.292 258.247 191.73 265.432 191.418 266.369ZM188.919 248.564C191.162 248.564 192.98 246.746 192.98 244.503C192.98 242.26 191.162 240.442 188.919 240.442C186.676 240.442 184.858 242.26 184.858 244.503C184.858 246.746 186.676 248.564 188.919 248.564Z" fill="url(#paint14_linear_731_170)" fill-opacity="0.4"/>
</g>
<ellipse cx="206.468" cy="228.71" rx="16.9505" ry="16.9505" fill="url(#paint15_linear_731_170)"/>
<path fill-rule="evenodd" clip-rule="evenodd" d="M190.762 222.325H203.948C209.966 222.325 214.845 227.204 214.845 233.222V243.45C212.544 244.76 209.906 245.548 207.093 245.65C207.096 245.135 207.077 244.61 207.036 244.076C206.107 232.164 196.863 228.19 189.548 227.691C189.66 225.802 190.081 223.997 190.762 222.325ZM189.651 230.851C196.224 231.446 203.513 235.455 204.224 244.076C204.265 244.574 204.29 245.056 204.298 245.523C203.208 245.384 202.15 245.141 201.135 244.805C201.128 244.603 201.117 244.398 201.101 244.191C200.546 236.974 194.812 234.197 190.254 233.668C189.976 232.759 189.773 231.817 189.651 230.851ZM198.536 243.694C197.849 239.485 194.274 237.109 191.256 236.196C192.833 239.395 195.39 242.025 198.536 243.694Z" fill="url(#paint16_linear_731_170)"/>
<path d="M147.554 242.627C128.296 242.627 110.289 237.269 94.9424 227.963M45.9453 141.018C45.9453 156.455 49.3879 171.088 55.5472 184.192M110.605 46.3362C94.9172 52.4629 81.1252 62.3761 70.3528 74.9524M184.503 46.3362C194.796 50.3559 204.272 56.0056 212.616 62.968C224.238 72.6668 233.661 84.9129 240.026 98.8485M244.747 170.738C241.407 181.676 236.27 191.831 229.681 200.859" stroke="url(#paint17_linear_731_170)" stroke-width="3"/>
<defs>
<filter id="filter0_b_731_170" x="137.809" y="24.7173" width="18.1338" height="18.699" filterUnits="userSpaceOnUse" color-interpolation-filters="sRGB">
<feFlood flood-opacity="0" result="BackgroundImageFix"/>
<feGaussianBlur in="BackgroundImageFix" stdDeviation="1"/>
<feComposite in2="SourceAlpha" operator="in" result="effect1_backgroundBlur_731_170"/>
<feBlend mode="normal" in="SourceGraphic" in2="effect1_backgroundBlur_731_170" result="shape"/>
</filter>
<filter id="filter1_b_731_170" x="122.262" y="9.45312" width="49.2275" height="49.2273" filterUnits="userSpaceOnUse" color-interpolation-filters="sRGB">
<feFlood flood-opacity="0" result="BackgroundImageFix"/>
<feGaussianBlur in="BackgroundImageFix" stdDeviation="1"/>
<feComposite in2="SourceAlpha" operator="in" result="effect1_backgroundBlur_731_170"/>
<feBlend mode="normal" in="SourceGraphic" in2="effect1_backgroundBlur_731_170" result="shape"/>
</filter>
<filter id="filter2_b_731_170" x="-1.83984" y="84.9148" width="60.5869" height="49.2693" filterUnits="userSpaceOnUse" color-interpolation-filters="sRGB">
<feFlood flood-opacity="0" result="BackgroundImageFix"/>
<feGaussianBlur in="BackgroundImageFix" stdDeviation="1"/>
<feComposite in2="SourceAlpha" operator="in" result="effect1_backgroundBlur_731_170"/>
<feBlend mode="normal" in="SourceGraphic" in2="effect1_backgroundBlur_731_170" result="shape"/>
</filter>
<filter id="filter3_b_731_170" x="23.4531" y="201.632" width="58.2031" height="43.1899" filterUnits="userSpaceOnUse" color-interpolation-filters="sRGB">
<feFlood flood-opacity="0" result="BackgroundImageFix"/>
<feGaussianBlur in="BackgroundImageFix" stdDeviation="1"/>
<feComposite in2="SourceAlpha" operator="in" result="effect1_backgroundBlur_731_170"/>
<feBlend mode="normal" in="SourceGraphic" in2="effect1_backgroundBlur_731_170" result="shape"/>
</filter>
<filter id="filter4_b_731_170" x="225.473" y="96.4119" width="58.6875" height="67.4868" filterUnits="userSpaceOnUse" color-interpolation-filters="sRGB">
<feFlood flood-opacity="0" result="BackgroundImageFix"/>
<feGaussianBlur in="BackgroundImageFix" stdDeviation="1"/>
<feComposite in2="SourceAlpha" operator="in" result="effect1_backgroundBlur_731_170"/>
<feBlend mode="normal" in="SourceGraphic" in2="effect1_backgroundBlur_731_170" result="shape"/>
</filter>
<filter id="filter5_b_731_170" x="225.473" y="114.653" width="44.9033" height="49.2454" filterUnits="userSpaceOnUse" color-interpolation-filters="sRGB">
<feFlood flood-opacity="0" result="BackgroundImageFix"/>
<feGaussianBlur in="BackgroundImageFix" stdDeviation="1"/>
<feComposite in2="SourceAlpha" operator="in" result="effect1_backgroundBlur_731_170"/>
<feBlend mode="normal" in="SourceGraphic" in2="effect1_backgroundBlur_731_170" result="shape"/>
</filter>
<filter id="filter6_b_731_170" x="161.617" y="220.325" width="55.2275" height="55.228" filterUnits="userSpaceOnUse" color-interpolation-filters="sRGB">
<feFlood flood-opacity="0" result="BackgroundImageFix"/>
<feGaussianBlur in="BackgroundImageFix" stdDeviation="1"/>
<feComposite in2="SourceAlpha" operator="in" result="effect1_backgroundBlur_731_170"/>
<feBlend mode="normal" in="SourceGraphic" in2="effect1_backgroundBlur_731_170" result="shape"/>
</filter>
<linearGradient id="paint0_linear_731_170" x1="139.809" y1="27.0464" x2="156.412" y2="34.7149" gradientUnits="userSpaceOnUse">
<stop stop-color="#36BAC7"/>
<stop offset="1" stop-color="#298C96" stop-opacity="0.3"/>
</linearGradient>
<linearGradient id="paint1_linear_731_170" x1="124.262" y1="12.4657" x2="176.641" y2="37.6257" gradientUnits="userSpaceOnUse">
<stop stop-color="#36BAC7"/>
<stop offset="1" stop-color="#298C96" stop-opacity="0.3"/>
</linearGradient>
<linearGradient id="paint2_linear_731_170" x1="174.277" y1="4.03575" x2="145.257" y2="70.6157" gradientUnits="userSpaceOnUse">
<stop stop-color="#7DCF60"/>
<stop offset="0.485945" stop-color="#107A81"/>
<stop offset="1" stop-color="#090909"/>
</linearGradient>
<linearGradient id="paint3_linear_731_170" x1="164.862" y1="15.5268" x2="153.314" y2="27.1008" gradientUnits="userSpaceOnUse">
<stop stop-color="#61E3B0"/>
<stop offset="1" stop-color="#2DD4C7"/>
</linearGradient>
<linearGradient id="paint4_linear_731_170" x1="0.160156" y1="87.9283" x2="59.4435" y2="123.524" gradientUnits="userSpaceOnUse">
<stop stop-color="#36BAC7"/>
<stop offset="1" stop-color="#298C96" stop-opacity="0.3"/>
</linearGradient>
<linearGradient id="paint5_linear_731_170" x1="61.5997" y1="79.5254" x2="32.6934" y2="145.845" gradientUnits="userSpaceOnUse">
<stop stop-color="#7DCF60"/>
<stop offset="0.485945" stop-color="#107A81"/>
<stop offset="1" stop-color="#090909"/>
</linearGradient>
<linearGradient id="paint6_linear_731_170" x1="52.1546" y1="90.9726" x2="40.6527" y2="102.46" gradientUnits="userSpaceOnUse">
<stop stop-color="#61E3B0"/>
<stop offset="1" stop-color="#2DD4C7"/>
</linearGradient>
<linearGradient id="paint7_linear_731_170" x1="25.4531" y1="204.51" x2="79.054" y2="240.12" gradientUnits="userSpaceOnUse">
<stop stop-color="#36BAC7"/>
<stop offset="1" stop-color="#298C96" stop-opacity="0.3"/>
</linearGradient>
<linearGradient id="paint8_linear_731_170" x1="83.5454" y1="195.922" x2="54.9462" y2="261.536" gradientUnits="userSpaceOnUse">
<stop stop-color="#7DCF60"/>
<stop offset="0.485945" stop-color="#107A81"/>
<stop offset="1" stop-color="#090909"/>
</linearGradient>
<linearGradient id="paint9_linear_731_170" x1="74.9416" y1="207.577" x2="63.7779" y2="219.354" gradientUnits="userSpaceOnUse">
<stop stop-color="#61E3B0"/>
<stop offset="1" stop-color="#2DD4C7"/>
</linearGradient>
<linearGradient id="paint10_linear_731_170" x1="227.473" y1="124.301" x2="267.976" y2="141.169" gradientUnits="userSpaceOnUse">
<stop stop-color="#36BAC7"/>
<stop offset="1" stop-color="#298C96" stop-opacity="0.3"/>
</linearGradient>
<linearGradient id="paint11_linear_731_170" x1="235.228" y1="117.466" x2="274.852" y2="134.847" gradientUnits="userSpaceOnUse">
<stop stop-color="#36BAC7"/>
<stop offset="1" stop-color="#298C96" stop-opacity="0.3"/>
</linearGradient>
<linearGradient id="paint12_linear_731_170" x1="276.023" y1="101.982" x2="247.103" y2="168.331" gradientUnits="userSpaceOnUse">
<stop stop-color="#7DCF60"/>
<stop offset="0.485945" stop-color="#107A81"/>
<stop offset="1" stop-color="#090909"/>
</linearGradient>
<linearGradient id="paint13_linear_731_170" x1="264.348" y1="119.429" x2="256.716" y2="129.202" gradientUnits="userSpaceOnUse">
<stop stop-color="#61E3B0"/>
<stop offset="1" stop-color="#2DD4C7"/>
</linearGradient>
<linearGradient id="paint14_linear_731_170" x1="163.617" y1="223.472" x2="222.946" y2="251.97" gradientUnits="userSpaceOnUse">
<stop stop-color="#36BAC7"/>
<stop offset="1" stop-color="#298C96" stop-opacity="0.3"/>
</linearGradient>
<linearGradient id="paint15_linear_731_170" x1="217.293" y1="215.323" x2="188.43" y2="281.543" gradientUnits="userSpaceOnUse">
<stop stop-color="#7DCF60"/>
<stop offset="0.485945" stop-color="#107A81"/>
<stop offset="1" stop-color="#090909"/>
</linearGradient>
<linearGradient id="paint16_linear_731_170" x1="209.786" y1="226.441" x2="198.157" y2="239.053" gradientUnits="userSpaceOnUse">
<stop stop-color="#61E3B0"/>
<stop offset="1" stop-color="#2DD4C7"/>
</linearGradient>
<linearGradient id="paint17_linear_731_170" x1="220.246" y1="69.531" x2="98.1553" y2="242.627" gradientUnits="userSpaceOnUse">
<stop stop-color="#3BFBCD"/>
<stop offset="1" stop-color="#3BFBCD" stop-opacity="0"/>
</linearGradient>
</defs>
</svg>
