<svg width="149" height="154" viewBox="0 0 149 154" fill="none" xmlns="http://www.w3.org/2000/svg">
<g filter="url(#filter0_b_660_281)">
<path fill-rule="evenodd" clip-rule="evenodd" d="M0.398438 53.6941C0.398438 38.7824 12.4868 26.6941 27.3984 26.6941H100.331C115.243 26.6941 127.331 38.7824 127.331 53.6941V126.627C127.331 141.538 115.243 153.627 100.331 153.627H27.3984C12.4867 153.627 0.398438 141.538 0.398438 126.627V53.6941ZM39.8714 80.8726C38.633 90.1603 45.0312 99.7061 48.3852 103.318L47.6115 109.51C45.2896 109.51 32.9059 97.1262 34.4539 80.8726C36.0019 64.619 50.7075 54.5573 62.3171 54.5573C73.9268 54.5573 91.7284 60.7491 93.2763 80.8726C94.5147 96.9714 84.5046 106.672 79.3447 109.51L78.5707 103.318C81.9246 100.738 88.3229 92.6371 87.0845 80.8726C85.5365 66.167 70.0569 59.9751 62.3171 59.9751C54.5774 59.9751 41.4193 69.2629 39.8714 80.8726ZM42.7067 117.428C34.8703 112.24 22.6255 104.133 24.7523 80.5892C26.4149 62.1838 42.9668 47.6242 60.6381 47.6242C77.8694 47.6242 99.0972 57.339 101.015 80.5892C103.047 105.222 88.4396 114.665 81.1662 119.366C80.1286 120.037 79.2402 120.611 78.5707 121.12L77.7967 128.085C90.9543 122.668 109.961 105.984 107.981 80.5892C105.506 48.8452 79.1995 39.8517 60.6381 39.8517C42.0768 39.8517 20.6744 54.9498 18.1995 80.5892C15.7247 106.229 35.227 124.215 49.1593 128.085L47.6107 121.12C46.5001 119.939 44.7538 118.783 42.7067 117.428ZM69.2828 135.825C68.6636 137.683 64.8969 138.663 63.091 138.921C61.285 138.921 57.3633 138.302 56.1249 135.825C54.5769 132.729 52.2553 117.25 51.4813 106.414C50.7073 95.5782 59.9951 95.5782 63.091 95.5782C66.1869 95.5782 73.9267 97.1261 73.9267 106.414C73.9267 115.702 70.0568 133.503 69.2828 135.825ZM63.091 91.7084C68.6479 91.7084 73.1527 87.2036 73.1527 81.6466C73.1527 76.0897 68.6479 71.5849 63.091 71.5849C57.534 71.5849 53.0293 76.0897 53.0293 81.6466C53.0293 87.2036 57.534 91.7084 63.091 91.7084Z" fill="url(#paint0_linear_660_281)" fill-opacity="0.4"/>
</g>
<ellipse cx="106.575" cy="42.5162" rx="42" ry="41.9999" fill="url(#paint1_linear_660_281)"/>
<path fill-rule="evenodd" clip-rule="evenodd" d="M67.6579 26.6941H100.331C115.243 26.6941 127.331 38.7824 127.331 53.6941V79.0374C121.63 82.2849 115.093 84.2356 108.124 84.4881C108.131 83.2124 108.085 81.9126 107.982 80.5892C105.68 51.0732 82.7753 41.2263 64.6504 39.9894C64.9281 35.3102 65.9718 30.8372 67.6579 26.6941ZM64.9072 47.8189C81.1932 49.293 99.2536 59.2289 101.016 80.5892C101.117 81.8222 101.177 83.017 101.199 84.1752C98.4977 83.83 95.8769 83.2283 93.3615 82.3952C93.3444 81.8942 93.3163 81.3867 93.2768 80.8726C91.9014 62.9925 77.6943 56.111 66.4001 54.7989C65.7124 52.5467 65.2089 50.2142 64.9072 47.8189ZM86.9202 79.6425C85.219 69.2136 76.3596 63.3255 68.8822 61.0633C72.7907 68.9914 79.1268 75.508 86.9202 79.6425Z" fill="url(#paint2_linear_660_281)"/>
<defs>
<filter id="filter0_b_660_281" x="-1.60156" y="24.6941" width="130.933" height="130.933" filterUnits="userSpaceOnUse" color-interpolation-filters="sRGB">
<feFlood flood-opacity="0" result="BackgroundImageFix"/>
<feGaussianBlur in="BackgroundImageFix" stdDeviation="1"/>
<feComposite in2="SourceAlpha" operator="in" result="effect1_backgroundBlur_660_281"/>
<feBlend mode="normal" in="SourceGraphic" in2="effect1_backgroundBlur_660_281" result="shape"/>
</filter>
<linearGradient id="paint0_linear_660_281" x1="0.398436" y1="29.5359" x2="147.403" y2="100.148" gradientUnits="userSpaceOnUse">
<stop stop-color="#36BAC7"/>
<stop offset="1" stop-color="#298C96" stop-opacity="0.3"/>
</linearGradient>
<linearGradient id="paint1_linear_660_281" x1="133.398" y1="9.34475" x2="61.8814" y2="173.424" gradientUnits="userSpaceOnUse">
<stop stop-color="#7DCF60"/>
<stop offset="0.485945" stop-color="#107A81"/>
<stop offset="1" stop-color="#090909"/>
</linearGradient>
<linearGradient id="paint2_linear_660_281" x1="114.795" y1="36.893" x2="85.9811" y2="68.1437" gradientUnits="userSpaceOnUse">
<stop stop-color="#61E3B0"/>
<stop offset="1" stop-color="#2DD4C7"/>
</linearGradient>
</defs>
</svg>
