<svg width="163" height="78" viewBox="0 0 163 78" fill="none" xmlns="http://www.w3.org/2000/svg">
<path d="M103.668 53.1336C103.668 53.1336 103.668 53.664 103.652 53.6952C103.652 53.6952 103.684 53.196 103.637 52.4004C103.652 52.6344 103.652 52.884 103.668 53.1336Z" fill="black"/>
<path d="M62.2505 28.9065C62.235 28.6725 62.235 28.4541 62.235 28.2045C62.235 28.2045 62.2039 28.0797 62.2505 28.9065Z" fill="black"/>
<path d="M54.2711 17.9868H47.4251C46.9905 17.9868 46.6179 18.33 46.5868 18.7668L44.103 54.3972H52.6256L55.1094 18.8916C55.1405 18.408 54.7524 17.9868 54.2711 17.9868Z" fill="url(#paint0_linear_515_4634)"/>
<path d="M35.5184 51.7296L25.5366 18.798C25.3814 18.3144 24.9312 17.9712 24.4344 17.9712H16.9675C16.4086 17.9712 16.0205 18.5016 16.1913 19.032L27.2287 55.3644V55.38C28.6258 59.8728 32.7707 62.9304 37.4589 62.9304H42.1781C42.4576 62.9304 42.737 62.8368 42.9543 62.6964C43.3114 62.4624 43.5442 62.0724 43.5908 61.62L44.1186 54.366H39.2441C37.552 54.3972 36.0618 53.3208 35.5184 51.7296Z" fill="white"/>
<path d="M145.474 54.3972H123.492C121.039 54.3972 119.036 52.4004 119.036 49.92V44.1792H141.593C142.012 44.1792 142.353 43.836 142.353 43.4148V36.3792C142.353 35.958 142.012 35.6148 141.593 35.6148H119.036V27.3624C119.036 26.91 119.409 26.5356 119.859 26.5356H145.474C145.877 26.5356 146.219 26.208 146.219 25.7868V18.72C146.219 18.3144 145.893 17.9712 145.474 17.9712H119.487C119.083 17.9712 118.742 18.2988 118.742 18.72V25.7088C118.695 26.1612 118.276 26.5356 117.826 26.5356H111.74C111.29 26.5356 110.871 26.1612 110.824 25.7088V18.642C110.824 18.2676 110.529 17.9712 110.157 17.9712H73.6759C71.5491 17.9712 70.6177 18.8448 70.4625 21.0288C70.4625 21.06 70.4625 25.6464 70.4625 25.6464C70.4625 26.0988 70.0899 26.4732 69.6397 26.4732H63.0887C62.654 26.4732 62.297 26.8008 62.2504 27.2376C62.2504 27.2532 62.2349 28.2048 62.2349 28.2048C62.2349 28.4388 62.2349 28.6728 62.2504 28.9068C62.359 30.6228 62.8248 33.696 64.7808 36.4104C66.2555 38.454 69.0498 39.9672 71.099 40.8876C71.1766 40.9188 83.813 45.7704 83.813 45.7704L91.8232 48.8436C93.6395 49.53 94.4933 50.6532 94.6951 52.416C94.7262 52.6656 94.7417 53.2584 94.7417 53.2896C94.7417 53.4768 94.7417 53.6328 94.7262 53.7576C94.7262 53.8044 94.7107 53.8356 94.7107 53.8668C94.6796 54.054 94.5554 54.21 94.3847 54.288C94.3381 54.3192 94.2915 54.3348 94.2449 54.3348C94.1208 54.366 93.981 54.3816 93.7948 54.3816H52.6411L52.1599 61.23V61.2456C52.0978 61.8852 52.4238 62.4624 52.9361 62.7432C53.1224 62.8524 53.3397 62.9148 53.557 62.9304C53.5726 62.9304 92.0406 62.946 92.0561 62.946C94.1829 62.946 95.1143 62.0724 95.2695 59.8884C95.2695 59.8572 95.2695 55.2708 95.2695 55.2708C95.2695 54.8184 95.6421 54.444 96.0923 54.444H102.814C103.249 54.444 103.606 54.1164 103.652 53.6796C103.652 53.6484 103.668 53.118 103.668 53.118C103.668 52.8684 103.668 52.6344 103.652 52.3848C103.652 52.3692 103.652 52.3692 103.652 52.3536C103.652 52.2912 103.637 52.2132 103.637 52.1508C103.513 50.4348 103.016 47.5488 101.153 44.9436C101.138 44.9124 101.106 44.8968 101.091 44.8656C101.029 44.7876 100.843 44.5536 100.812 44.5068C99.2902 42.666 96.7132 41.2932 94.8038 40.4352C94.5865 40.3416 94.3226 40.2324 94.0431 40.1076L75.1817 32.9784L73.9088 32.4948C72.0925 31.8084 71.2387 30.6852 71.0369 28.9224C71.0213 28.7352 71.0058 28.3452 70.9903 28.158V27.2376C70.9903 27.222 71.0058 27.1596 71.0058 27.1596C71.0369 26.9256 71.1921 26.7072 71.4094 26.6136C71.5336 26.5668 71.7044 26.5512 71.9217 26.5512H109.676C110.126 26.5512 110.498 26.9256 110.498 27.378V49.9356C110.498 57.1272 116.304 62.9616 123.461 62.9616H145.442C145.862 62.9616 146.203 62.6184 146.203 62.1972V55.1616C146.219 54.7404 145.893 54.3972 145.474 54.3972Z" fill="white"/>
<path d="M111.461 15.8963H118.105C118.478 15.8963 118.773 15.5999 118.773 15.2255V8.5331C118.773 8.1587 118.478 7.8623 118.105 7.8623H111.461C111.088 7.8623 110.793 8.1587 110.793 8.5331V15.2255C110.809 15.5999 111.104 15.8963 111.461 15.8963Z" fill="white"/>
<defs>
<linearGradient id="paint0_linear_515_4634" x1="37.9242" y1="48.19" x2="61.4144" y2="24.8146" gradientUnits="userSpaceOnUse">
<stop stop-color="#007A81"/>
<stop offset="0.1494" stop-color="#0A817E"/>
<stop offset="0.4042" stop-color="#259475"/>
<stop offset="0.7313" stop-color="#51B366"/>
<stop offset="1" stop-color="#7AD059"/>
</linearGradient>
</defs>
</svg>
