<svg width="139" height="42" viewBox="0 0 139 42" fill="none" xmlns="http://www.w3.org/2000/svg">
<path d="M39.3463 0.0532837H0.092041V42H39.3463V0.0532837Z" fill="#D01F2A"/>
<path d="M28.8571 22.6119H8.42724L4.8186 27.9145H11.1144L5.85742 35.636H13.5483L18.8568 27.9145H25.2456L28.8571 22.6119Z" fill="white"/>
<path d="M10.592 19.4367H31.0276L34.6262 14.1341H28.1945L33.4243 6.41266H25.7377L20.5036 14.1326H14.1835L10.592 19.4367Z" fill="white"/>
<path d="M55.1155 25.2564V17.2585H57.2237V20.2264H58.1355L60.0726 17.2564H62.4655L59.9581 21.0268L62.6398 25.2543H60.2469L58.2521 22.1695H57.2268V25.2543L55.1155 25.2564Z" fill="white"/>
<path d="M67.6399 25.2543L69.8059 17.2564H73.681L75.847 25.2543H73.681L73.2818 23.6546H70.2082L69.809 25.2543H67.6399ZM70.6599 21.8272H72.826L72.1421 19.1995H71.3438L70.6599 21.8272Z" fill="white"/>
<path d="M80.8469 19.1985V17.2564H87.9638V19.1985H85.4564V25.2543H83.3482V19.1985H80.8469Z" fill="white"/>
<path d="M92.9639 19.1985V17.2564H100.087V19.1985H97.5796V25.2543H95.4713V19.1985H92.9639Z" fill="white"/>
<path d="M105.087 25.2543L107.253 17.2564H111.128L113.294 25.2543H111.128L110.729 23.6546H107.652L107.253 25.2543H105.087ZM108.107 21.8272H110.273L109.589 19.1995H108.791L108.107 21.8272Z" fill="white"/>
<path d="M118.294 25.2543V17.2564H120.858L123.65 22.2833H123.765L123.594 21.2554V17.2564H125.702V25.2543H123.138L120.346 20.2264H120.231L120.402 21.2554V25.2543H118.294Z" fill="white"/>
<path d="M130.702 25.2543L132.868 17.2564H136.742L138.908 25.2543H136.742L136.343 23.6546H133.266L132.867 25.2543H130.702ZM133.722 21.8272H135.888L135.204 19.1995H134.406L133.722 21.8272Z" fill="white"/>
</svg>
