<svg width="129" height="40" viewBox="0 0 129 40" fill="none" xmlns="http://www.w3.org/2000/svg">
<g clip-path="url(#clip0_515_4405)">
<path d="M23.7751 29.3438H13.1483V39.9905H23.7751V29.3438Z" fill="#ABEBF4"/>
<path d="M33.1827 14.6914H13.1483V25.2995H36.8012V14.6914H33.1827Z" fill="#107A81"/>
<path d="M46.0189 0H13.1483V10.6468H46.0189V0Z" fill="#107A81"/>
<path d="M10.7125 14.6914H0.0858154V25.3366H10.7125V14.6914Z" fill="#107A81"/>
<path d="M66.247 14.463V19.805H76.988V25.1469H66.247V33.5034H59.3514V9.12109H78.4341V14.4243H66.247V14.463ZM88.3764 14.5775H80.9108V9.12109H102.697V14.5775H95.2704V33.4646H88.3764V14.5775ZM120.983 33.4646L115.954 25.9098L111.004 33.4646H103.156L111.955 21.1775L103.499 9.15819H111.231L116.107 16.1792L120.906 9.15819H128.334L119.877 20.9098L128.904 33.5017H120.983V33.4646Z" fill="white"/>
</g>
<defs>
<clipPath id="clip0_515_4405">
<rect width="128.828" height="40" fill="white" transform="translate(0.0858154)"/>
</clipPath>
</defs>
</svg>
