<svg width="143" height="40" viewBox="0 0 143 40" fill="none" xmlns="http://www.w3.org/2000/svg">
<path fill-rule="evenodd" clip-rule="evenodd" d="M28.8263 6.66447H28.5339H27.3511V0H20.6264V6.66447H13.9017V0H7.19027V6.66447H0.465576V13.3289H7.19027V26.671H0.465576V33.3356H7.19027V40H13.9149V33.3356H20.6396V40H27.3643V33.3356H28.5471C35.8699 33.4146 41.8769 27.3428 41.9566 20.0988C42.0231 12.8416 36.1489 6.74349 28.8263 6.66447ZM28.7464 26.671C28.6801 26.671 28.6136 26.671 28.5471 26.671H13.9282V13.3421H28.5471C32.2151 13.2894 35.2319 16.2134 35.2852 19.8486C35.325 23.4705 32.4012 26.6183 28.7464 26.671Z" fill="#7DCF60"/>
<path d="M50.0476 30.5949V9.46875H57.7956C59.5367 9.46875 61.065 9.74534 62.3673 10.2985C63.6831 10.8517 64.7729 11.6024 65.65 12.5639C66.5272 13.5122 67.1916 14.6318 67.6302 15.9093C68.0687 17.1869 68.2946 18.5567 68.2946 20.0054C68.2946 21.6123 68.0555 23.0611 67.5638 24.365C67.072 25.669 66.3676 26.7753 65.4506 27.6973C64.5337 28.6192 63.4306 29.3305 62.1282 29.8442C60.8258 30.3578 59.3905 30.608 57.7956 30.608H50.0476V30.5949ZM64.1217 20.0054C64.1217 18.9913 63.9755 18.0562 63.6964 17.2133C63.4173 16.3571 63.0053 15.6327 62.4604 15.0137C61.9156 14.3947 61.2511 13.9204 60.4669 13.5912C59.6828 13.2488 58.7792 13.0907 57.7824 13.0907H54.1809V26.9992H57.7824C58.8057 26.9992 59.7094 26.8148 60.4935 26.4592C61.2777 26.1036 61.9421 25.6163 62.4737 24.984C63.0053 24.365 63.404 23.6275 63.6831 22.7713C63.9755 21.9152 64.1217 20.9933 64.1217 20.0054Z" fill="white"/>
<path d="M86.2226 26.8161C85.2126 28.6336 83.7508 29.5688 83.445 29.7399C81.5978 30.8595 79.7904 30.8859 78.8999 30.8859C77.6374 30.8859 76.4945 30.6751 75.4844 30.2405C74.4744 29.8059 73.5973 29.2395 72.8796 28.5019C72.162 27.7644 71.6038 26.9215 71.2184 25.9468C70.833 24.9721 70.6335 23.958 70.6335 22.878C70.6335 21.7717 70.8196 20.7179 71.2051 19.7432C71.5905 18.7555 72.1353 17.8994 72.853 17.1617C73.5706 16.4242 74.4477 15.8315 75.4844 15.3969C76.521 14.9623 77.6639 14.7383 78.9531 14.7383C80.2288 14.7383 81.3851 14.9623 82.3952 15.3969C83.4051 15.8315 84.269 16.4242 84.9734 17.1486C85.6778 17.8861 86.2226 18.7292 86.5948 19.7038C86.9669 20.6784 87.153 21.6926 87.153 22.733C87.153 22.9965 87.153 23.2336 87.1396 23.4707C87.1264 23.7077 87.0997 23.9053 87.0599 24.0634H74.8996C74.9661 24.6824 75.1123 25.2224 75.3515 25.6965C75.5908 26.1707 75.8964 26.579 76.2818 26.9215C76.6672 27.2639 77.0924 27.5141 77.5709 27.6986C78.0494 27.8828 78.5544 27.9619 79.0727 27.9619C79.8701 27.9619 80.6276 27.7644 81.3453 27.3824C82.0497 27.0005 82.5414 26.4868 82.8072 25.8546C84.1095 25.8546 85.3986 25.8546 86.7011 25.8678C86.5682 26.118 86.4353 26.4472 86.2226 26.8161ZM82.9799 21.495C82.8735 20.3228 82.4483 19.3877 81.6775 18.6896C80.9066 17.9915 79.9764 17.6359 78.8733 17.6359C78.3284 17.6359 77.8235 17.7281 77.3582 17.9125C76.8931 18.0969 76.4679 18.3604 76.109 18.7028C75.7502 19.0452 75.4578 19.4403 75.2186 19.9277C74.9927 20.4019 74.8597 20.9286 74.8199 21.5082H82.9799V21.495Z" fill="white"/>
<path d="M98.8779 18.4545C97.6552 18.4808 96.5655 18.7048 95.6085 19.1526C94.6517 19.6004 93.9607 20.2721 93.5353 21.1546V30.585H89.5085V15.0037H93.2032V18.336C93.4822 17.796 93.8145 17.3218 94.1999 16.8872C94.5852 16.4657 94.984 16.0837 95.4358 15.7677C95.8743 15.4516 96.3262 15.2012 96.7648 15.0433C97.2167 14.872 97.6552 14.793 98.0672 14.793C98.2931 14.793 98.4527 14.793 98.5589 14.793C98.6652 14.793 98.7716 14.8062 98.8779 14.8193V18.4545Z" fill="white"/>
<path d="M101.266 30.5983V15.0039H105.293V30.585H101.266V30.5983Z" fill="white"/>
<path d="M126.344 30.5983V15.0039H130.371V30.585H126.344V30.5983Z" fill="white"/>
<path d="M138.758 30.8729C136.273 30.8729 135.037 29.5295 135.037 26.8557V18.4396H132.844V15.0546H135.037V9.45703H138.944V15.0678H142.36V18.4528H138.944V26.3026C138.944 27.0928 139.303 27.488 140.022 27.488C140.845 27.488 141.682 27.2641 142.546 26.8294V30.1616C141.576 30.6095 140.008 30.8729 138.758 30.8729Z" fill="white"/>
<path d="M103.277 13.4346C104.385 13.4346 105.284 12.5442 105.284 11.4458C105.284 10.3474 104.385 9.45703 103.277 9.45703C102.169 9.45703 101.27 10.3474 101.27 11.4458C101.27 12.5442 102.169 13.4346 103.277 13.4346Z" fill="white"/>
<path d="M128.355 13.419C129.464 13.419 130.362 12.5286 130.362 11.4302C130.362 10.3318 129.464 9.44141 128.355 9.44141C127.247 9.44141 126.348 10.3318 126.348 11.4302C126.348 12.5286 127.247 13.419 128.355 13.419Z" fill="white"/>
<path d="M116.697 30.8967C115.475 30.8967 114.398 30.6202 113.441 30.0802C112.484 29.5402 112.072 29.0133 111.727 28.2494V30.5938H107.634V9.44141H111.7V17.5678C112.272 16.6064 113.016 15.8556 113.933 15.3156C114.85 14.7887 115.94 14.5122 117.176 14.5122C118.212 14.5122 119.156 14.7361 120.007 15.1707C120.857 15.6185 121.588 16.2112 122.213 16.9489C122.837 17.6864 123.302 18.5689 123.648 19.5698C123.98 20.5708 124.153 21.6377 124.153 22.7308C124.153 23.8767 123.967 24.9435 123.595 25.9314C123.223 26.9192 122.691 27.7752 122.027 28.5129C121.362 29.2504 120.565 29.83 119.648 30.2514C118.731 30.6861 117.747 30.8967 116.697 30.8967ZM115.568 27.4592C116.219 27.4592 116.817 27.3275 117.362 27.0773C117.907 26.8269 118.372 26.4846 118.757 26.0631C119.143 25.6416 119.448 25.1543 119.661 24.5879C119.874 24.0216 119.98 23.4158 119.98 22.7835C119.98 22.1381 119.874 21.5323 119.674 20.9396C119.475 20.3601 119.183 19.8464 118.81 19.3985C118.438 18.9508 118 18.6083 117.481 18.3449C116.976 18.0816 116.418 17.9498 115.807 17.9498C114.89 17.9498 114.079 18.2527 113.362 18.8454C112.644 19.4381 112.086 20.1625 111.7 21.0318V24.7987C111.847 25.2069 112.046 25.5625 112.325 25.8787C112.604 26.1948 112.91 26.4714 113.255 26.7085C113.601 26.9456 113.973 27.1167 114.385 27.2485C114.784 27.3933 115.182 27.4592 115.568 27.4592Z" fill="white"/>
</svg>
