<svg width="201" height="40" viewBox="0 0 201 40" fill="none" xmlns="http://www.w3.org/2000/svg">
<g clip-path="url(#clip0_515_4418)">
<path d="M12.7334 16.8075L20.5021 9.04194L28.274 16.8138L32.7918 12.2929L20.5021 0L8.2124 12.2897L12.7334 16.8075Z" fill="#F3BA2F"/>
<path d="M0.501465 20L5.02078 15.4807L9.5401 20L5.02078 24.5193L0.501465 20Z" fill="#F3BA2F"/>
<path d="M12.7358 23.1946L20.5045 30.9633L28.2764 23.1914L32.7974 27.7061L32.7942 27.7092L20.5045 40.0021L8.21481 27.7155L8.2085 27.7092L12.7358 23.1946Z" fill="#F3BA2F"/>
<path d="M31.4624 20.0039L35.9817 15.4846L40.501 20.0039L35.9817 24.5232L31.4624 20.0039Z" fill="#F3BA2F"/>
<path d="M25.0902 19.9975L20.506 15.4102L17.1161 18.8001L16.7243 19.1887L15.9218 19.9912L15.9155 19.9975L15.9218 20.0069L20.506 24.5879L25.0902 20.0006L25.0933 19.9975H25.0902Z" fill="#F3BA2F"/>
<path d="M47.5522 9.69531H57.384C59.823 9.69531 61.668 10.3272 62.9191 11.5909C63.3905 12.0577 63.7621 12.6154 64.0113 13.2302C64.2606 13.845 64.3824 14.504 64.3692 15.1672V15.2273C64.3777 15.7706 64.3021 16.312 64.1449 16.8322C64.005 17.28 63.8018 17.7055 63.5415 18.0959C63.2989 18.464 63.0053 18.7959 62.6695 19.0816C62.3415 19.364 61.9821 19.6078 61.5985 19.8083C62.7048 20.1936 63.6996 20.8445 64.4956 21.7038C65.1991 22.5042 65.5508 23.61 65.5508 25.0211V25.0811C65.5708 25.9625 65.3791 26.8357 64.9916 27.6275C64.6162 28.3571 64.0659 28.9823 63.3899 29.4473C62.6256 29.9597 61.7745 30.329 60.8782 30.5373C59.8133 30.7898 58.7216 30.9118 57.6273 30.9006H47.5522V9.69531ZM56.3983 18.2697C57.2489 18.3108 58.0954 18.1278 58.8531 17.7389C59.1486 17.5663 59.3898 17.3145 59.5495 17.0118C59.7092 16.7092 59.7809 16.3679 59.7567 16.0266V15.9665C59.7723 15.652 59.7084 15.3387 59.5709 15.0554C59.4334 14.7721 59.2267 14.5281 58.97 14.3458C58.4455 13.973 57.6884 13.7866 56.6984 13.7866H52.0985V18.2697H56.3983ZM57.6399 26.8156C58.4874 26.8631 59.3309 26.6692 60.0726 26.2564C60.3615 26.0708 60.5954 25.8111 60.7499 25.5044C60.9043 25.1976 60.9737 24.8551 60.9509 24.5125V24.4524C60.9623 24.1267 60.8936 23.8032 60.751 23.5102C60.6083 23.2172 60.396 22.9636 60.1326 22.7717C59.5892 22.3504 58.7109 22.1398 57.4978 22.1398H52.0985V26.8156H57.6399Z" fill="#F3BA2F"/>
<path d="M71.4077 9.69531H76.074V30.9069H71.4077V9.69531Z" fill="#F3BA2F"/>
<path d="M83.1343 9.69531H87.4373L97.3828 22.7496V9.69531H101.989V30.9069H98.0178L87.7469 17.423V30.9069H83.1343V9.69531Z" fill="#F3BA2F"/>
<path d="M116.117 9.54297H120.414L129.503 30.9062H124.632L122.692 26.1483H113.723L111.783 30.9062H107.025L116.117 9.54297ZM121.027 22.0286L118.203 15.1476L115.391 22.0286H121.027Z" fill="#F3BA2F"/>
<path d="M134.548 9.69531H138.851L148.79 22.7496V9.69531H153.397V30.9069H149.426L139.155 17.423V30.9069H134.548V9.69531Z" fill="#F3BA2F"/>
<path d="M170.195 31.279C168.708 31.2917 167.233 31.0037 165.86 30.4323C164.568 29.8985 163.395 29.1115 162.411 28.1175C161.428 27.1234 160.653 25.9426 160.133 24.6444C159.584 23.2866 159.306 21.8345 159.314 20.3699V20.3099C159.29 17.423 160.401 14.642 162.407 12.5664C163.395 11.5525 164.577 10.7487 165.883 10.2032C167.303 9.61485 168.828 9.32141 170.366 9.34074C171.275 9.33396 172.183 9.41543 173.076 9.58401C173.841 9.72859 174.588 9.95199 175.307 10.2506C175.959 10.5251 176.579 10.8704 177.155 11.2806C177.717 11.6805 178.246 12.1265 178.735 12.6138L175.768 16.0385C175.01 15.3391 174.16 14.747 173.241 14.2787C172.338 13.8471 171.347 13.6308 170.347 13.6469C169.514 13.638 168.689 13.8064 167.926 14.1408C167.164 14.4753 166.481 14.9681 165.924 15.5867C165.371 16.2037 164.938 16.9183 164.647 17.694C164.343 18.5136 164.19 19.3818 164.195 20.2562V20.3162C164.193 21.1893 164.346 22.0559 164.647 22.8752C164.934 23.6537 165.363 24.3723 165.911 24.9951C166.464 25.6214 167.145 26.1215 167.908 26.4616C168.671 26.8017 169.499 26.9739 170.334 26.9665C171.398 27 172.454 26.7711 173.408 26.2999C174.317 25.8047 175.157 25.1929 175.907 24.4802L178.877 27.4815C178.352 28.0506 177.785 28.5787 177.18 29.0611C176.586 29.5311 175.94 29.9328 175.256 30.2585C174.527 30.6017 173.759 30.8553 172.969 31.0136C172.056 31.1967 171.126 31.2856 170.195 31.279Z" fill="#F3BA2F"/>
<path d="M184.384 9.69531H200.348V13.8466H188.975V18.1496H198.99V22.301H188.991V26.7556H200.506V30.9069H184.394L184.384 9.69531Z" fill="#F3BA2F"/>
</g>
<defs>
<clipPath id="clip0_515_4418">
<rect width="199.997" height="40" fill="white" transform="translate(0.501465)"/>
</clipPath>
</defs>
</svg>
