<svg width="130" height="40" viewBox="0 0 130 40" fill="none" xmlns="http://www.w3.org/2000/svg">
<g clip-path="url(#clip0_263_5161)">
<path d="M119.75 0.000244141L92.0796 39.6431H100.575L128.39 0.000244141H119.75Z" fill="white"/>
<path d="M101.46 0.000244141L109.601 11.6817L105.353 18.0533L92.7871 0.000244141H101.46Z" fill="url(#paint0_linear_263_5161)"/>
<path d="M120.575 39.6465L111.548 26.7262L115.796 20.5315L129.07 39.6465H120.575Z" fill="url(#paint1_linear_263_5161)"/>
<path fill-rule="evenodd" clip-rule="evenodd" d="M82.1681 0.000244141H89.6017V39.6431H82.1681V38.1624C80.0212 39.334 77.5564 40.0002 74.9352 40.0002C66.6134 40.0002 59.8672 33.2845 59.8672 25.0002C59.8672 16.716 66.6134 10.0002 74.9352 10.0002C77.5564 10.0002 80.0212 10.6665 82.1681 11.8381V0.000244141ZM74.8559 33.4168C79.5691 33.4168 83.39 29.6132 83.39 24.9212C83.39 20.2293 79.5691 16.4257 74.8559 16.4257C70.1426 16.4257 66.3217 20.2293 66.3217 24.9212C66.3217 29.6132 70.1426 33.4168 74.8559 33.4168Z" fill="white"/>
<path d="M60.6065 0.000244141L32.9644 39.6431H41.6302L69.2458 0.000244141H60.6065Z" fill="white"/>
<path d="M41.6369 0.000244141L50.3095 12.0356L45.5307 18.7613L32.6104 0.000244141H41.6369Z" fill="url(#paint2_linear_263_5161)"/>
<path fill-rule="evenodd" clip-rule="evenodd" d="M23.0528 0.000244141H30.4865V39.6431H23.0528V38.1624C20.9059 39.334 18.4411 40.0002 15.82 40.0002C7.49815 40.0002 0.751953 33.2845 0.751953 25.0002C0.751953 16.716 7.49815 10.0002 15.82 10.0002C18.4411 10.0002 20.9059 10.6665 23.0528 11.8381V0.000244141ZM15.7407 33.4168C20.4539 33.4168 24.2748 29.6132 24.2748 24.9212C24.2748 20.2293 20.4539 16.4257 15.7407 16.4257C11.0274 16.4257 7.20654 20.2293 7.20654 24.9212C7.20654 29.6132 11.0274 33.4168 15.7407 33.4168Z" fill="white"/>
</g>
<defs>
<linearGradient id="paint0_linear_263_5161" x1="99.5128" y1="2.47812" x2="111.168" y2="16.5483" gradientUnits="userSpaceOnUse">
<stop stop-color="white"/>
<stop offset="1" stop-color="white" stop-opacity="0.55"/>
</linearGradient>
<linearGradient id="paint1_linear_263_5161" x1="122.522" y1="36.6377" x2="108.202" y2="17.3333" gradientUnits="userSpaceOnUse">
<stop stop-color="#6966FF"/>
<stop offset="1" stop-color="#6966FF" stop-opacity="0.36"/>
</linearGradient>
<linearGradient id="paint2_linear_263_5161" x1="39.69" y1="2.57529" x2="51.7721" y2="17.3496" gradientUnits="userSpaceOnUse">
<stop stop-color="white"/>
<stop offset="1" stop-color="white" stop-opacity="0.55"/>
</linearGradient>
<clipPath id="clip0_263_5161">
<rect width="128.496" height="40" fill="white" transform="translate(0.751953 0.000244141)"/>
</clipPath>
</defs>
</svg>
