<svg width="205" height="33" viewBox="0 0 205 33" fill="none" xmlns="http://www.w3.org/2000/svg">
<g clip-path="url(#clip0_515_4329)">
<path d="M51.4086 28.4483C50.7629 27.8026 50.1981 27.4395 49.8752 27.4395C48.7454 28.4079 47.212 28.8922 45.1137 28.8922C41.1591 28.8922 38.8994 26.2692 38.8994 22.5165C38.8994 18.6427 41.1995 16.0198 44.9522 16.0198C46.4453 16.0198 47.5751 16.383 48.3419 17.0286V19.1269C48.3419 19.4497 48.5436 19.7726 49.0682 20.2972C49.5524 20.7409 49.9155 20.9428 50.1577 20.9428C50.4805 20.9428 50.8033 20.7409 51.2472 20.2972C51.7314 19.8129 51.9736 19.4497 51.9736 19.1269V15.2532C51.9736 14.6075 51.2472 13.8812 49.8752 13.1548C48.5032 12.3881 46.8488 12.0653 44.9119 12.0653C41.7644 12.0653 39.1416 13.0337 37.1643 15.011C35.187 16.9479 34.1379 19.4497 34.1379 22.4762C34.1379 22.9604 34.1783 23.4043 34.2186 23.8481L16.625 13.8408L23.7673 9.76522C24.7358 9.20029 25.0989 7.94938 24.5341 6.94057C23.9691 5.97212 22.7182 5.60895 21.7094 6.17388L14.4864 10.2898V2.05796C14.4864 0.9281 13.5583 0 12.4284 0C11.2985 0 10.3704 0.9281 10.3704 2.05796V10.2898L3.1474 6.17388C2.13859 5.60895 0.887676 5.97212 0.322745 6.94057C-0.242185 7.90903 0.120985 9.20029 1.08944 9.76522L8.27213 13.8408L1.12979 17.9164C0.161337 18.4812 -0.201833 19.7322 0.363097 20.7411C0.726267 21.3866 1.45261 21.7901 2.13859 21.7901C2.50176 21.7901 2.82458 21.7094 3.1474 21.5077L10.3704 17.3918V25.664C10.3704 26.7938 11.2985 27.7219 12.4284 27.7219C13.5583 27.7219 14.4864 26.7938 14.4864 25.664V17.3514L38.2538 30.8694L40.11 31.9185L40.1504 31.9589C40.2714 32.0396 40.4328 32.08 40.5539 32.1203C41.8452 32.6046 43.2978 32.8466 44.9119 32.8466C48.019 32.8466 50.5612 31.8782 52.4578 29.9816C52.4982 29.6588 52.1349 29.0939 51.4086 28.4483Z" fill="white"/>
<path d="M64.9319 12.0664C61.8652 12.0664 59.3229 13.0349 57.3457 15.0525C55.3684 16.9894 54.3596 19.4913 54.3596 22.5176C54.3596 25.5037 55.3281 27.9652 57.3457 29.9828C59.3229 31.9197 61.8652 32.9285 64.9319 32.9285C67.9986 32.9285 70.5409 31.9601 72.5182 29.9828C74.4954 28.0055 75.5445 25.5037 75.5445 22.5176C75.5445 19.4913 74.5357 17.0297 72.5182 15.0525C70.5005 13.0349 67.9986 12.0664 64.9319 12.0664ZM69.0478 27.1581C68.039 28.3687 66.667 28.9336 64.9319 28.9336C63.1968 28.9336 61.8248 28.3687 60.816 27.1581C59.8071 25.9476 59.2827 24.4142 59.2827 22.5176C59.2827 20.6211 59.8071 19.0474 60.816 17.8771C61.8248 16.6666 63.1968 16.1016 64.9319 16.1016C66.667 16.1016 68.039 16.6666 69.0478 17.8771C70.097 19.0877 70.662 20.6211 70.662 22.5176C70.662 24.4142 70.1374 25.9476 69.0478 27.1581Z" fill="white"/>
<path d="M83.6175 0.808371C83.1736 0.324145 82.8103 0.0820312 82.5279 0.0820312H76.8786C76.5558 0.0820312 76.233 0.283792 75.7084 0.808371C75.2645 1.25224 75.0627 1.61542 75.0627 1.89788C75.0627 2.18034 75.2645 2.54351 75.7084 3.06809C76.1926 3.51197 76.5558 3.71373 76.8786 3.71373H79.7436V32.4848H84.3034V1.89788C84.3437 1.57506 84.1017 1.25224 83.6175 0.808371Z" fill="white"/>
<path d="M107.785 27.4408V1.89788C107.785 1.57506 107.543 1.25224 107.058 0.80837C106.614 0.324144 106.251 0.0820312 105.969 0.0820312H101.611C101.288 0.0820312 100.965 0.283792 100.441 0.80837C99.9967 1.25224 99.795 1.61541 99.795 1.89788C99.795 2.18034 99.9967 2.54351 100.441 3.0681C100.925 3.51197 101.288 3.71372 101.611 3.71372H103.225V12.7123C101.893 12.2684 100.602 12.0666 99.3108 12.0666C96.1633 12.0666 93.5807 13.0351 91.5631 15.0526C89.5051 16.9896 88.4963 19.5318 88.4963 22.6389C88.4963 25.5846 89.3842 28.0057 91.2 29.9426C93.0157 31.8796 95.3159 32.8883 98.0599 32.8883C100.158 32.8883 101.974 32.2427 103.507 30.9515C104.032 31.6778 105 32.4848 105.485 32.4848H108.229V31.9602L108.108 31.597C107.946 31.1935 107.785 29.5391 107.785 27.4408ZM103.185 27.6829C102.095 28.5303 100.763 28.9338 99.1897 28.9338C95.5983 28.9338 93.3386 26.311 93.3386 22.5582C93.3386 18.6441 95.6387 16.0211 99.5125 16.0211C100.884 16.0211 102.135 16.3036 103.185 16.8686V27.6829Z" fill="white"/>
<path d="M120.291 20.5794C119.082 20.0952 118.355 19.732 118.033 19.5706C116.983 19.0461 116.418 18.4004 116.418 17.7547C116.418 16.5442 117.548 15.8179 119.445 15.8179C121.099 15.8179 122.39 16.2618 123.318 17.1899C123.641 17.1899 124.166 16.8266 124.811 16.181C125.456 15.5354 125.821 14.9704 125.821 14.688C124.166 12.9529 121.987 12.1055 119.323 12.1055C114.562 12.1055 112.141 14.2845 112.141 17.9969C112.141 20.9829 113.674 22.4356 117.952 24.2111L120.291 25.2199C121.583 25.7849 122.188 26.4708 122.188 27.1165C122.188 28.4077 120.816 29.2147 118.798 29.2147C116.942 29.2147 115.369 28.6094 114.199 27.3989C113.876 27.3989 113.351 27.762 112.665 28.4481C111.979 29.1744 111.656 29.699 111.656 29.9815C113.553 31.878 116.015 32.8464 118.96 32.8464C123.762 32.8464 126.506 30.5867 126.506 26.9147C126.506 25.4216 126.022 24.2111 125.093 23.3637C124.206 22.5163 122.551 21.5479 120.291 20.5794Z" fill="white"/>
<path d="M142.65 28.8131C142.084 28.2078 141.601 27.885 141.277 27.885C140.51 28.6516 139.542 28.9744 138.251 28.9744C136.799 28.9744 136.032 28.1674 136.032 26.634V16.1424H142.447V12.5107H136.032V5.20703H134.74L131.714 6.86147V12.5107H129.535C129.212 12.5107 128.809 12.7126 128.364 13.1564C127.92 13.6003 127.719 14.0038 127.719 14.3266C127.719 14.6495 127.92 14.9723 128.364 15.4969C128.849 15.9407 129.212 16.1424 129.535 16.1424H131.432V27.4411C131.432 31.0728 133.369 32.8886 137.242 32.8886C139.623 32.8886 141.721 32.0009 143.537 30.1851C143.577 29.8622 143.255 29.3779 142.65 28.8131Z" fill="white"/>
<path d="M161.733 27.4407V19.0474C161.733 14.4876 159.029 12.0664 153.743 12.0664C150.555 12.0664 147.932 13.0349 145.915 15.0525C145.915 15.4561 146.278 15.9805 146.964 16.7069C147.69 17.3526 148.214 17.7158 148.577 17.7158C149.869 16.4649 151.443 15.8596 153.34 15.8596C155.68 15.8596 157.173 17.0297 157.173 19.1685V20.7018C156.164 20.5807 155.235 20.5404 154.348 20.5404C148.538 20.5404 145.43 22.8808 145.43 27.0371C145.43 30.7898 148.134 32.8882 152.048 32.8882C154.187 32.8882 156.002 32.2425 157.456 30.9109C158.02 31.6776 158.988 32.525 159.513 32.525H162.258V32.0005L162.136 31.6372C161.895 31.1933 161.733 29.5389 161.733 27.4407ZM157.173 27.602C156.124 28.6512 154.792 29.2161 153.178 29.2161C151.04 29.2161 149.991 28.3687 149.991 26.6739C149.991 24.7773 151.443 23.8492 154.389 23.8492C155.316 23.8492 156.245 23.93 157.173 24.051V27.602Z" fill="white"/>
<path d="M182.961 28.4494C182.275 27.8038 181.751 27.4406 181.428 27.4406C180.299 28.409 178.765 28.8933 176.666 28.8933C172.712 28.8933 170.452 26.2704 170.452 22.5176C170.452 18.6439 172.753 16.0209 176.505 16.0209C177.999 16.0209 179.128 16.3842 179.895 17.0297V19.1281C179.895 19.4509 180.096 19.7737 180.621 20.2983C181.105 20.7421 181.468 20.9439 181.751 20.9439C182.074 20.9439 182.397 20.7421 182.841 20.2983C183.324 19.814 183.567 19.4509 183.567 19.1281V15.2542C183.567 14.6087 182.841 13.8823 181.468 13.156C180.096 12.3892 178.443 12.0664 176.505 12.0664C173.358 12.0664 170.735 13.0349 168.758 15.0122C166.74 16.949 165.731 19.4509 165.731 22.4773C165.731 25.5441 166.74 28.0055 168.758 29.9828C170.735 31.9197 173.358 32.9285 176.585 32.9285C179.693 32.9285 182.235 31.9601 184.132 30.0635C184.01 29.66 183.647 29.0951 182.961 28.4494Z" fill="white"/>
<path d="M198.091 22.195L204.467 14.8106C204.467 14.4474 204.023 13.9228 203.135 13.1562C202.287 12.3894 201.682 12.0666 201.319 12.0666L194.298 20.137L192.522 20.3792V1.89788C192.522 1.57506 192.32 1.25224 191.796 0.808371C191.352 0.324145 190.989 0.0820312 190.666 0.0820312H186.307C185.985 0.0820312 185.662 0.283792 185.138 0.808371C184.694 1.25224 184.492 1.61542 184.492 1.89788C184.492 2.18034 184.694 2.54351 185.138 3.06809C185.622 3.51197 185.985 3.71373 186.307 3.71373H187.922V32.4848H192.482V24.374L194.136 24.1723L201.763 32.9288C202.126 32.9288 202.731 32.5251 203.579 31.7585C204.426 30.9515 204.869 30.3865 204.869 30.0234L198.091 22.195Z" fill="white"/>
</g>
<defs>
<clipPath id="clip0_515_4329">
<rect width="204.828" height="33" fill="white" transform="translate(0.0861816)"/>
</clipPath>
</defs>
</svg>
