<svg width="144" height="40" viewBox="0 0 144 40" fill="none" xmlns="http://www.w3.org/2000/svg">
<g clip-path="url(#clip0_263_5097)">
<path d="M127.118 11.0773C127.681 11.0773 128.186 11.4272 128.382 11.9552L133.033 24.4187L137.99 11.9297C138.193 11.4183 138.685 11.0811 139.235 11.0773H142.079C142.533 11.0779 142.956 11.3071 143.205 11.6871C143.454 12.067 143.494 12.5465 143.313 12.9628L134.418 33.1624C132.572 37.3516 130.148 39.2803 126.33 39.2803C125.501 39.2724 124.674 39.1909 123.859 39.0367C123.221 38.9174 122.758 38.359 122.76 37.7091V35.6174C122.76 35.2424 122.916 34.8843 123.19 34.6288C123.465 34.3733 123.833 34.2434 124.207 34.2701C124.551 34.2957 124.853 34.3114 125.14 34.3114C126.905 34.3114 128.343 33.8616 129.368 31.5618L129.985 30.2066L122.942 12.9372C122.773 12.5208 122.822 12.0474 123.073 11.6744C123.324 11.3014 123.744 11.0773 124.193 11.0773H127.118ZM14.9618 3.81055C19.6872 3.81055 23.7035 5.93559 26.188 9.42757C26.6027 10.0372 26.4504 10.8669 25.8463 11.2894L23.8273 12.7271C23.2492 13.1422 22.4475 13.0336 22.0008 12.4796C20.2646 10.2289 17.9392 8.94443 14.9618 8.94443C9.91238 8.94443 6.21614 12.6387 6.21614 17.8943C6.21614 23.1068 9.91238 26.7618 14.9618 26.7618C17.9392 26.7618 20.2587 25.4675 22.0008 23.2266C22.447 22.6717 23.2494 22.563 23.8273 22.9791L25.8561 24.4148C26.4627 24.8376 26.6152 25.6703 26.1978 26.2806C23.7389 29.7647 19.6832 31.8917 14.9206 31.8917C6.87408 31.8917 0.510742 25.8171 0.510742 17.8511C0.510742 9.88518 6.87408 3.81055 14.9618 3.81055ZM55.1098 10.6256C61.094 10.6256 66.0197 15.2233 66.0197 21.2115C66.0197 27.2469 61.0921 31.8446 55.0587 31.8446C49.0253 31.8446 44.2214 27.2469 44.2214 21.2115C44.2214 15.2233 49.0214 10.6256 55.1098 10.6256ZM71.625 11.0773C72.0207 11.0831 72.3724 11.3311 72.5107 11.7019C72.5107 11.7019 76.4093 21.62 77.3913 21.62C78.0865 21.62 81.5156 13.2672 81.5156 13.2672C81.6628 12.9145 82.0055 12.6829 82.3877 12.678H82.912C83.2942 12.6829 83.6369 12.9145 83.7841 13.2672C83.7841 13.2672 87.2132 21.62 87.9084 21.62C88.8904 21.62 92.7949 11.7019 92.7949 11.7019C92.9332 11.3311 93.2849 11.0831 93.6806 11.0773H96.9094C97.6066 11.0773 98.0721 11.8433 97.7834 12.5169C97.7834 12.5169 96.4165 19.2672 89.4777 30.7997C89.3125 31.1397 88.9804 31.3674 88.6037 31.3988H88.1579C87.7926 31.3988 87.7278 31.3988 87.2976 30.8292C87.0675 30.5037 86.8365 30.1697 86.6074 29.8326L86.3335 29.4268L86.0625 29.02C84.3119 26.3769 82.804 23.7981 82.804 23.7981C82.784 23.733 82.7238 23.6886 82.6557 23.6886C82.5876 23.6886 82.5275 23.733 82.5075 23.7981C82.5075 23.7981 80.2233 27.7045 78.0138 30.8292C77.5837 31.3988 77.517 31.3988 77.1517 31.3988H76.7058C76.3298 31.3671 75.9983 31.1394 75.8338 30.7997C68.9029 19.2672 67.5281 12.5169 67.5281 12.5169C67.2394 11.8433 67.7048 11.0773 68.4021 11.0773H71.625ZM41.2499 10.8299C41.4443 10.8299 41.625 10.8358 41.7958 10.8475C42.5048 10.8951 43.0553 11.4843 43.0548 12.1948V14.6086C43.0548 15.3527 42.4516 15.9559 41.7075 15.9559H41.5778C38.3746 15.9559 36.1179 17.6037 36.1179 21.2587V30.0495C36.1169 30.7942 35.5134 31.3977 34.7687 31.3988H31.9229C31.1784 31.3977 30.5756 30.7939 30.5756 30.0495V12.4246C30.5756 11.6805 31.1788 11.0773 31.9229 11.0773H34.317C35.0614 11.0773 35.6651 11.6802 35.6662 12.4246V13.5402C36.9935 11.8038 39.0646 10.7985 41.2499 10.8299ZM112.121 10.6256C116.883 10.6256 119.757 13.9094 119.757 18.7939V30.0495C119.755 30.7942 119.152 31.3977 118.407 31.3988H115.605C114.859 31.3988 114.255 30.7947 114.255 30.0495V19.5343C114.255 17.1932 112.737 15.5925 110.479 15.5925C108.22 15.5925 106.619 17.1932 106.619 19.5343V30.0495C106.618 30.7942 106.015 31.3977 105.27 31.3988H102.426C101.682 31.3977 101.078 30.7942 101.077 30.0495V12.4266C101.077 11.6814 101.681 11.0773 102.426 11.0773H104.818C105.564 11.0773 106.168 11.6814 106.168 12.4266V12.9235C107.564 11.529 109.616 10.6256 112.121 10.6256ZM55.1098 15.675C52.0224 15.675 49.8561 18.0613 49.8561 21.2606C49.8561 24.46 52.0322 26.7598 55.1098 26.7598C58.097 26.7598 60.3556 24.4187 60.3654 21.2587C60.3654 18.0554 58.1068 15.675 55.1098 15.675Z" fill="white"/>
<path fill-rule="evenodd" clip-rule="evenodd" d="M83.6504 2.19432e-07C83.8934 -0.000184197 84.1219 0.115882 84.2651 0.312275L85.469 1.97381C85.6345 2.20374 85.658 2.50674 85.5299 2.75941L82.8019 7.0036C82.7804 7.04374 82.7385 7.06878 82.6929 7.06878C82.6474 7.06878 82.6055 7.04374 82.5839 7.0036L79.8677 2.76334C79.7396 2.51067 79.7631 2.20766 79.9286 1.97774L81.1325 0.316203C81.2749 0.118325 81.5035 0.000728359 81.7473 2.19432e-07H83.6504ZM67.1116 0.936825L68.9793 2.23306C69.3462 2.48813 69.4722 2.97271 69.2759 3.37414L67.4631 6.63633C67.371 6.82363 67.1633 6.92433 66.9591 6.88072C66.755 6.8371 66.6066 6.66033 66.599 6.45172C66.599 6.45172 66.5008 5.36367 66.4242 4.05761C66.3955 3.56784 66.3844 3.06177 66.3818 2.62051L66.3826 2.07767C66.3864 1.62833 66.3967 1.32962 66.3967 1.32962C66.3897 1.15693 66.4811 0.995166 66.6326 0.911938C66.784 0.82871 66.9696 0.838349 67.1116 0.936825ZM98.1446 0.936825C98.2867 0.838349 98.4722 0.82871 98.6237 0.911938C98.7752 0.995166 98.8665 1.15693 98.8595 1.32962C98.8595 1.32962 98.8723 1.68511 98.8755 2.20385L98.8757 2.62051C98.8735 3.06177 98.8627 3.56784 98.834 4.05761C98.7574 5.36367 98.6572 6.45172 98.6572 6.45172C98.648 6.65965 98.499 6.8349 98.2953 6.8775C98.0916 6.92009 97.8849 6.81922 97.7931 6.63241L95.9823 3.37414C95.786 2.97271 95.912 2.48813 96.2789 2.23306L98.1446 0.936825Z" fill="url(#paint0_linear_263_5097)"/>
</g>
<defs>
<linearGradient id="paint0_linear_263_5097" x1="82.6288" y1="1.29934" x2="82.6288" y2="4.08406" gradientUnits="userSpaceOnUse">
<stop stop-color="#EBD19C"/>
<stop offset="1" stop-color="#DFAF6E"/>
</linearGradient>
<clipPath id="clip0_263_5097">
<rect width="142.979" height="40" fill="white" transform="translate(0.510742)"/>
</clipPath>
</defs>
</svg>
