<svg width="191" height="32" viewBox="0 0 191 32" fill="none" xmlns="http://www.w3.org/2000/svg">
<path d="M53.3714 12.597C53.3768 12.2987 53.4977 12.0142 53.7088 11.8033C53.9198 11.5924 54.2044 11.4717 54.5027 11.4665H54.764C54.9801 11.467 55.1924 11.5233 55.3803 11.6299C55.5683 11.7366 55.7255 11.8899 55.8368 12.0751L63.0872 22.9807L70.3383 12.0735C70.4478 11.8867 70.6047 11.732 70.793 11.6252C70.9814 11.5183 71.1946 11.463 71.4112 11.4649H71.6725C71.9708 11.4701 72.2554 11.5908 72.4664 11.8017C72.6774 12.0126 72.7984 12.2972 72.8038 12.5954V30.8389C72.8045 31.1418 72.6864 31.4329 72.4749 31.6497C72.2634 31.8665 71.9753 31.9918 71.6725 31.9986C71.3667 31.9928 71.075 31.8687 70.8586 31.6524C70.6422 31.4362 70.518 31.1447 70.512 30.8389V15.6987L64.0156 25.2409C63.9208 25.4129 63.7825 25.557 63.6147 25.6588C63.4468 25.7606 63.2551 25.8165 63.0588 25.8211C62.8584 25.8172 62.6624 25.7618 62.4897 25.6602C62.317 25.5585 62.1734 25.4142 62.0727 25.2409L55.6007 15.7255V30.8657C55.6007 31.1618 55.483 31.4458 55.2736 31.6552C55.0642 31.8646 54.7802 31.9823 54.484 31.9823C54.1878 31.9823 53.9038 31.8646 53.6944 31.6552C53.485 31.4458 53.3673 31.1618 53.3673 30.8657L53.3714 12.597Z" fill="#FAFAFF"/>
<path d="M84.5513 12.571C84.5472 12.418 84.5739 12.2656 84.6296 12.1231C84.6853 11.9805 84.7691 11.8507 84.8758 11.7411C84.9826 11.6314 85.1103 11.5442 85.2513 11.4847C85.3923 11.4252 85.5438 11.3945 85.6968 11.3945C85.8499 11.3945 86.0014 11.4252 86.1424 11.4847C86.2834 11.5442 86.411 11.6314 86.5178 11.7411C86.6246 11.8507 86.7083 11.9805 86.764 12.1231C86.8198 12.2656 86.8464 12.418 86.8423 12.571V30.8429C86.8464 30.9959 86.8198 31.1481 86.764 31.2906C86.7083 31.4332 86.6246 31.5632 86.5178 31.6728C86.411 31.7825 86.2834 31.8695 86.1424 31.929C86.0014 31.9885 85.8499 32.0192 85.6968 32.0192C85.5438 32.0192 85.3923 31.9885 85.2513 31.929C85.1103 31.8695 84.9826 31.7825 84.8758 31.6728C84.7691 31.5632 84.6853 31.4332 84.6296 31.2906C84.5739 31.1481 84.5472 30.9959 84.5513 30.8429V12.571Z" fill="#FAFAFF"/>
<path d="M98.5861 12.5962C98.5915 12.2979 98.7124 12.0134 98.9235 11.8025C99.1345 11.5916 99.4191 11.4709 99.7174 11.4657H100.036C100.27 11.4712 100.498 11.5352 100.701 11.6517C100.904 11.7682 101.074 11.9336 101.196 12.1328L113.523 27.8525V12.5385C113.523 12.2424 113.64 11.9584 113.85 11.749C114.059 11.5396 114.343 11.4219 114.639 11.4219C114.935 11.4219 115.219 11.5396 115.429 11.749C115.638 11.9584 115.756 12.2424 115.756 12.5385V30.8688C115.762 31.0089 115.739 31.1487 115.689 31.2797C115.639 31.4107 115.563 31.5302 115.465 31.6306C115.367 31.7311 115.25 31.8105 115.12 31.864C114.991 31.9175 114.852 31.9439 114.711 31.9417H114.598C114.36 31.9235 114.129 31.8515 113.923 31.7309C113.717 31.6102 113.541 31.4442 113.409 31.2455L100.822 15.1485V30.8688C100.822 31.165 100.704 31.4492 100.495 31.6586C100.285 31.868 100.001 31.9857 99.7052 31.9857C99.409 31.9857 99.125 31.868 98.9156 31.6586C98.7062 31.4492 98.5885 31.165 98.5885 30.8688L98.5861 12.5962Z" fill="#FAFAFF"/>
<path d="M127.504 12.5679C127.504 12.264 127.625 11.9724 127.84 11.7575C128.055 11.5426 128.346 11.4219 128.65 11.4219C128.954 11.4219 129.245 11.5426 129.46 11.7575C129.675 11.9724 129.796 12.264 129.796 12.5679V30.8397C129.796 31.1436 129.675 31.4352 129.46 31.65C129.245 31.8649 128.954 31.9857 128.65 31.9857C128.346 31.9857 128.055 31.8649 127.84 31.65C127.625 31.4352 127.504 31.1436 127.504 30.8397V12.5679Z" fill="#FAFAFF"/>
<path d="M141.544 12.597C141.55 12.2989 141.671 12.0145 141.882 11.8037C142.092 11.5929 142.377 11.4719 142.675 11.4665H142.936C143.152 11.4669 143.365 11.5233 143.553 11.6299C143.741 11.7366 143.898 11.8899 144.009 12.0751L151.26 22.9807L158.506 12.0736C158.615 11.8866 158.772 11.7318 158.961 11.625C159.149 11.5181 159.363 11.463 159.579 11.4649H159.84C160.138 11.4701 160.423 11.5908 160.634 11.8017C160.845 12.0126 160.966 12.2972 160.971 12.5954V30.8389C160.972 31.1418 160.854 31.4329 160.642 31.6497C160.431 31.8665 160.143 31.9918 159.84 31.9986C159.534 31.9928 159.243 31.8687 159.026 31.6525C158.81 31.4362 158.686 31.1447 158.68 30.8389V15.6988L152.184 25.2409C152.089 25.413 151.951 25.5572 151.783 25.659C151.614 25.7608 151.423 25.8166 151.226 25.8211C151.026 25.8171 150.83 25.7616 150.657 25.66C150.485 25.5584 150.341 25.4141 150.24 25.2409L143.772 15.7279V30.8681C143.776 31.0172 143.75 31.1656 143.696 31.3045C143.642 31.4435 143.56 31.5701 143.456 31.677C143.352 31.7839 143.228 31.869 143.09 31.9271C142.953 31.9851 142.805 32.0148 142.656 32.0148C142.507 32.0148 142.359 31.9851 142.222 31.9271C142.084 31.869 141.96 31.7839 141.856 31.677C141.752 31.5701 141.67 31.4435 141.616 31.3045C141.561 31.1656 141.536 31.0172 141.54 30.8681L141.544 12.597Z" fill="#FAFAFF"/>
<path d="M171.27 30.3466L179.508 12.3359C179.61 12.0345 179.806 11.7735 180.067 11.5909C180.327 11.4084 180.64 11.3137 180.958 11.3207H181.074C181.388 11.3143 181.697 11.4096 181.953 11.5925C182.209 11.7754 182.399 12.0362 182.495 12.3359L190.731 30.3173C190.817 30.4993 190.866 30.6965 190.876 30.8976C190.877 31.0423 190.848 31.1856 190.793 31.3194C190.737 31.4532 190.656 31.5747 190.554 31.677C190.452 31.7794 190.33 31.8606 190.196 31.916C190.063 31.9713 189.919 31.9997 189.774 31.9996C189.523 31.9895 189.281 31.9039 189.079 31.7539C188.877 31.6039 188.725 31.3966 188.643 31.1589L186.526 26.4892H175.389L173.272 31.2166C173.195 31.447 173.046 31.6469 172.848 31.7876C172.65 31.9283 172.413 32.0025 172.17 31.9996C172.032 32.0002 171.896 31.9737 171.769 31.9215C171.642 31.8693 171.527 31.7925 171.43 31.6955C171.333 31.5984 171.256 31.4832 171.204 31.3563C171.151 31.2293 171.125 31.0933 171.125 30.956C171.124 30.7442 171.174 30.5351 171.27 30.3466ZM185.627 24.4011L180.958 14.0182L176.288 24.4011H185.627Z" fill="#FAFAFF"/>
<path d="M7.86917 0.97486L13.5638 3.27556L9.32264 22.0223L7.22725 31.2853H1.01244L7.41066 2.99639V2.9843L7.86592 0.972483L7.86917 0.97486ZM7.35546 -0.00133055L6.71273 2.83907L0.11731 31.997H7.7937L10.0149 22.1772L14.3891 2.8365L7.35546 -0.00390625V-0.00133055Z" fill="#FAFAFF"/>
<path d="M18.471 5.25373L24.1664 7.55443L20.568 23.4606L18.7989 31.2816H12.5873L16.7652 12.8108L18.0174 7.27606L18.4751 5.25195L18.471 5.25373ZM17.9654 4.27814L17.3227 7.11854L16.0705 12.6533L11.6954 31.9933H19.3718L21.2668 23.6173L24.9999 7.11775L17.9662 4.27734L17.9654 4.27814Z" fill="#FAFAFF"/>
<path d="M29.0805 9.54022L34.7759 11.8411L30.3773 31.2865H24.1617L27.6976 15.6569L29.0772 9.54022H29.0805ZM28.5676 8.56641L26.9988 15.5004L23.2657 31.9997H30.9421L35.5996 11.4076L28.5659 8.5672L28.5676 8.56641Z" fill="#FAFAFF"/>
<path d="M10.0157 22.1806L11.6916 32.0002L12.1038 30.1791L10.4272 20.3594L10.0157 22.1806ZM14.39 2.83984L13.9785 4.66087L15.6544 14.4806L16.0666 12.6604L14.39 2.84064" fill="#FAFAFF"/>
<path d="M23.6241 30.426L21.622 22.05L21.2657 23.6244L23.2686 32.0003L23.6241 30.426ZM24.6418 8.70014L26.6447 17.0753L27.0001 15.5008L24.998 7.125L24.6418 8.70014Z" fill="#FAFAFF"/>
</svg>
