<svg width="192" height="40" viewBox="0 0 192 40" fill="none" xmlns="http://www.w3.org/2000/svg">
<g clip-path="url(#clip0_263_5146)">
<path d="M0.166504 39.9252L18.2014 6.91594L34.1292 -0.000976562L16.0693 33.0083L0.166504 39.9252Z" fill="url(#paint0_linear_263_5146)"/>
<path d="M18.1509 32.3927L31.8463 7.30957L39.6723 14.8665L26.1273 39.9988L18.1509 32.3927Z" fill="url(#paint1_linear_263_5146)"/>
<path d="M41.1786 15.6045L51.3121 19.2476L46.2453 28.4045L33.9546 28.823L41.1786 15.6045Z" fill="url(#paint2_linear_263_5146)"/>
<path d="M65.5376 31.3821H58.5V11.8955H65.5898C67.5782 11.8955 69.3048 12.2807 70.7438 13.0509C72.1827 13.8211 73.3077 14.9507 74.0664 16.3885C74.8512 17.8519 75.2174 19.572 75.2174 21.6002C75.2174 23.6285 74.825 25.3744 74.0402 26.8378C73.2553 28.3012 72.1565 29.4052 70.6914 30.2011C69.2787 30.9969 67.552 31.3821 65.5376 31.3821ZM62.6859 27.839H65.3543C67.2119 27.839 68.6246 27.3513 69.5927 26.3499C70.5606 25.3744 71.0316 23.7825 71.0316 21.6002C71.0316 19.4437 70.5606 17.8776 69.5927 16.8762C68.6246 15.9007 67.2119 15.4128 65.3543 15.4128H62.6859V27.839Z" fill="white"/>
<path d="M78.3558 31.3818H73.856L80.7104 11.9209H86.1258L92.9546 31.3818H88.4543L86.9892 26.9402H79.8208L78.3558 31.3818ZM80.8935 23.731H85.9427L83.5096 16.3625H83.3527L80.8935 23.731Z" fill="white"/>
<path d="M110.171 21.6523C110.171 23.7832 109.752 25.5803 108.941 27.0695C108.13 28.5585 107.005 29.6881 105.619 30.4841C104.206 31.2543 102.636 31.665 100.883 31.665C99.1304 31.665 97.5339 31.28 96.1477 30.4841C94.7352 29.6881 93.6361 28.5585 92.8252 27.0695C92.0143 25.5803 91.5957 23.7832 91.5957 21.6779C91.5957 19.5469 92.0143 17.7498 92.8252 16.2607C93.6361 14.7715 94.7352 13.6419 96.1477 12.8461C97.5602 12.0758 99.1304 11.665 100.883 11.665C102.636 11.665 104.206 12.0501 105.619 12.8461C107.031 13.6163 108.13 14.7715 108.941 16.2607C109.778 17.6984 110.171 19.5212 110.171 21.6523ZM105.932 21.6523C105.932 19.5983 105.462 18.0065 104.546 16.9282C103.63 15.8499 102.4 15.285 100.883 15.285C99.366 15.285 98.1365 15.8242 97.2205 16.9282C96.3044 18.0322 95.8342 19.5983 95.8342 21.6523C95.8342 23.7062 96.3044 25.2979 97.2205 26.3763C98.1365 27.4545 99.366 28.0194 100.883 28.0194C102.4 28.0194 103.63 27.4802 104.546 26.3763C105.462 25.2723 105.932 23.7062 105.932 21.6523Z" fill="white"/>
<path d="M115.794 11.8955H120.975L126.442 24.9892H126.678L132.146 11.8955H137.3V31.3821H133.219V18.6991H133.062L127.934 31.2794H125.161L120.033 18.6478H119.876V31.3821H115.794V11.8955Z" fill="white"/>
<path d="M143.396 31.64C141.984 31.64 140.806 31.2806 139.865 30.536C138.922 29.8172 138.452 28.7132 138.452 27.2754C138.452 26.1971 138.713 25.3242 139.237 24.708C139.759 24.0918 140.44 23.6296 141.303 23.3473C142.141 23.0649 143.057 22.8594 144.051 22.7824C145.333 22.6541 146.274 22.5257 146.824 22.3717C147.373 22.2176 147.661 21.9352 147.661 21.4474V21.396C147.661 20.8055 147.477 20.3178 147.085 20.0096C146.693 19.6759 146.17 19.5218 145.463 19.5218C144.731 19.5218 144.128 19.6759 143.685 20.0096C143.24 20.3178 142.952 20.7285 142.821 21.2163L139.001 20.9082C139.289 19.5732 139.995 18.5206 141.12 17.7504C142.245 16.9802 143.71 16.5693 145.489 16.5693C146.588 16.5693 147.635 16.749 148.576 17.0828C149.545 17.4166 150.303 17.9557 150.905 18.6746C151.506 19.3935 151.795 20.3435 151.795 21.4987V31.3833H147.871V29.355H147.765C147.399 30.0225 146.876 30.5874 146.144 31.0238C145.411 31.4346 144.496 31.64 143.396 31.64ZM144.573 28.8672C145.489 28.8672 146.221 28.6105 146.798 28.097C147.373 27.5835 147.661 26.9416 147.661 26.1714V24.631C147.504 24.7337 147.243 24.8363 146.902 24.9134C146.562 24.9904 146.196 25.0675 145.829 25.1188C145.437 25.1702 145.097 25.2215 144.809 25.2728C144.077 25.3755 143.501 25.5809 143.057 25.8634C142.612 26.1714 142.403 26.6079 142.403 27.1727C142.403 27.7375 142.612 28.1483 143.03 28.4308C143.423 28.7131 143.945 28.8672 144.573 28.8672Z" fill="white"/>
<path d="M153.363 31.3821V11.8955H157.497V22.2934H157.732L162.494 16.7479H167.228L161.709 23.0637L167.517 31.3564H162.677L158.596 25.477L157.47 26.7351V31.3821H153.363Z" fill="white"/>
<path d="M173.482 31.6635C171.965 31.6635 170.657 31.3553 169.532 30.7392C168.433 30.123 167.57 29.2501 166.994 28.1461C166.393 27.0165 166.104 25.6814 166.104 24.141C166.104 22.6518 166.393 21.3168 166.994 20.1872C167.596 19.0575 168.433 18.159 169.506 17.5428C170.579 16.9009 171.861 16.5928 173.326 16.5928C174.633 16.5928 175.811 16.8752 176.884 17.4144C177.93 17.9535 178.767 18.7751 179.395 19.8791C180.023 20.9831 180.337 22.3438 180.337 24.0126V25.1166H170.213C170.213 26.1949 170.526 27.0678 171.128 27.684C171.729 28.3002 172.566 28.6339 173.587 28.6339C174.267 28.6339 174.869 28.4799 175.366 28.1974C175.864 27.915 176.23 27.4785 176.439 26.9395L180.259 27.1962C179.971 28.5569 179.238 29.6352 178.061 30.4568C176.857 31.2527 175.34 31.6635 173.482 31.6635ZM170.186 22.6005H176.439C176.439 21.7276 176.151 21.0088 175.575 20.4439C175 19.8791 174.293 19.5967 173.377 19.5967C172.462 19.5967 171.703 19.8791 171.128 20.4696C170.552 21.0601 170.239 21.779 170.186 22.6005Z" fill="white"/>
<path d="M181.355 31.3833V16.7747H185.358V19.3165H185.515C185.777 18.4179 186.248 17.7247 186.876 17.2625C187.504 16.8004 188.262 16.5693 189.073 16.5693C189.544 16.5693 189.963 16.6207 190.382 16.7234V20.3178C190.199 20.2664 189.91 20.215 189.571 20.1637C189.231 20.1123 188.916 20.1123 188.628 20.1123C187.713 20.1123 186.954 20.3948 186.379 20.9596C185.777 21.5244 185.489 22.2433 185.489 23.1419V31.3833H181.355Z" fill="white"/>
</g>
<defs>
<linearGradient id="paint0_linear_263_5146" x1="0.166504" y1="19.9621" x2="34.1292" y2="19.9621" gradientUnits="userSpaceOnUse">
<stop stop-color="#4086FF"/>
<stop offset="1" stop-color="#48D4FF"/>
</linearGradient>
<linearGradient id="paint1_linear_263_5146" x1="18.1509" y1="23.6541" x2="39.6723" y2="23.6541" gradientUnits="userSpaceOnUse">
<stop stop-color="#4086FF"/>
<stop offset="1" stop-color="#48D4FF"/>
</linearGradient>
<linearGradient id="paint2_linear_263_5146" x1="33.9546" y1="22.2138" x2="51.3121" y2="22.2138" gradientUnits="userSpaceOnUse">
<stop stop-color="#4086FF"/>
<stop offset="1" stop-color="#48D4FF"/>
</linearGradient>
<clipPath id="clip0_263_5146">
<rect width="191.667" height="40" fill="white" transform="translate(0.166504 -0.000976562)"/>
</clipPath>
</defs>
</svg>
